<?xml version="1.0" standalone="no"?><svg xmlns="http://www.w3.org/2000/svg" viewBox="0 0 1440 320"><path fill="#5000ca" fill-opacity="1" d="M0,224L9.6,208C19.2,192,38,160,58,165.3C76.8,171,96,213,115,234.7C134.4,256,154,256,173,240C192,224,211,192,230,165.3C249.6,139,269,117,288,133.3C307.2,149,326,203,346,224C364.8,245,384,235,403,197.3C422.4,160,442,96,461,96C480,96,499,160,518,154.7C537.6,149,557,75,576,69.3C595.2,64,614,128,634,165.3C652.8,203,672,213,691,186.7C710.4,160,730,96,749,85.3C768,75,787,117,806,149.3C825.6,181,845,203,864,186.7C883.2,171,902,117,922,122.7C940.8,128,960,192,979,202.7C998.4,213,1018,171,1037,138.7C1056,107,1075,85,1094,69.3C1113.6,53,1133,43,1152,74.7C1171.2,107,1190,181,1210,224C1228.8,267,1248,277,1267,245.3C1286.4,213,1306,139,1325,128C1344,117,1363,171,1382,176C1401.6,181,1421,139,1430,117.3L1440,96L1440,320L1430.4,320C1420.8,320,1402,320,1382,320C1363.2,320,1344,320,1325,320C1305.6,320,1286,320,1267,320C1248,320,1229,320,1210,320C1190.4,320,1171,320,1152,320C1132.8,320,1114,320,1094,320C1075.2,320,1056,320,1037,320C1017.6,320,998,320,979,320C960,320,941,320,922,320C902.4,320,883,320,864,320C844.8,320,826,320,806,320C787.2,320,768,320,749,320C729.6,320,710,320,691,320C672,320,653,320,634,320C614.4,320,595,320,576,320C556.8,320,538,320,518,320C499.2,320,480,320,461,320C441.6,320,422,320,403,320C384,320,365,320,346,320C326.4,320,307,320,288,320C268.8,320,250,320,230,320C211.2,320,192,320,173,320C153.6,320,134,320,115,320C96,320,77,320,58,320C38.4,320,19,320,10,320L0,320Z"></path></svg>